<?xml version="1.0" encoding="utf-8"?>
<svg xmlns="http://www.w3.org/2000/svg" height="32" width="32" viewBox="0 0 32 32">
  <g>
    <path id="path1" transform="rotate(0,16,16) translate(10.000005006786,8) scale(0.499999582767835,0.499999582767835)  " fill="#3D3D3D" d="M15.000001,8.0000272L17,8.0000272 17,27.000028 15.000001,27.000028z M11.000001,8.0000272L13.000001,8.0000272 13.000001,27.000028 11.000001,27.000028z M7.0000005,8.0000272L9.000001,8.0000272 9.000001,27.000028 7.0000005,27.000028z M3.0790101,5.0000274L4.9959994,29.922999 19.000006,30.000026 20.918949,5.0000274z M13.771989,1.9959999L10.198989,2.0000001C10.158989,2.025,9.9989892,2.241,9.9989892,2.6000001L9.9989892,3.0000258 13.998989,3.0000258 13.998989,2.6000001C13.998989,2.241,13.838988,2.025,13.771989,1.9959999z M10.198989,0L13.798988,0C15.031989,0,15.998989,1.142,15.998989,2.6000001L15.998989,3.0000258 23.07898,3.0000258 24,3.0000272 24,5.0000274 22.925121,5.0000274 20.995976,30.076991C20.999027,31.102992,20.100956,32.000026,18.999029,32.000026L4.9990512,32.000026C3.8960255,32.000026,2.9990543,31.102992,2.999054,30.000026L1.073059,5.0000274 0,5.0000274 0,3.0000272 0.91897895,3.0000272 7.9989887,3.0000258 7.9989887,2.6000001C7.9989887,1.142,8.9659892,0,10.198989,0z" />
  </g>
</svg>

